<?xml version="1.0" encoding="UTF-8" standalone="no"?>
<!-- Created with Inkscape (http://www.inkscape.org/) -->

<svg
   xmlns:dc="http://purl.org/dc/elements/1.1/"
   xmlns:cc="http://creativecommons.org/ns#"
   xmlns:rdf="http://www.w3.org/1999/02/22-rdf-syntax-ns#"
   xmlns:svg="http://www.w3.org/2000/svg"
   xmlns="http://www.w3.org/2000/svg"
   xmlns:xlink="http://www.w3.org/1999/xlink"
   xmlns:sodipodi="http://sodipodi.sourceforge.net/DTD/sodipodi-0.dtd"
   xmlns:inkscape="http://www.inkscape.org/namespaces/inkscape"
   width="2741.4768"
   height="647.84851"
   id="svg2"
   version="1.1"
   inkscape:version="0.48.4 r9939"
   sodipodi:docname="New document 1">
  <defs
     id="defs4">
    <linearGradient
       y2="788.24902"
       x2="-166.96086"
       y1="224.77332"
       x1="-169.8799"
       gradientUnits="userSpaceOnUse"
       id="linearGradient3037"
       xlink:href="#linearGradient5766"
       inkscape:collect="always" />
    <linearGradient
       y2="309.80219"
       x2="-419.88397"
       y1="874.38275"
       x1="-417.06381"
       gradientTransform="translate(-8.8388348,1.1048543)"
       gradientUnits="userSpaceOnUse"
       id="linearGradient3035"
       xlink:href="#linearGradient4250"
       inkscape:collect="always" />
    <linearGradient
       id="linearGradient5766">
      <stop
         id="stop5768"
         offset="0"
         style="stop-color:#8cc63f;stop-opacity:1;" />
      <stop
         id="stop5770"
         offset="1"
         style="stop-color:#00a650;stop-opacity:1;" />
    </linearGradient>
    <linearGradient
       id="linearGradient4250">
      <stop
         id="stop4252"
         offset="0"
         style="stop-color:#00549c;stop-opacity:1;" />
      <stop
         id="stop4254"
         offset="1"
         style="stop-color:#00baff;stop-opacity:1;" />
    </linearGradient>
    <linearGradient
       inkscape:collect="always"
       xlink:href="#linearGradient4250"
       id="linearGradient4026"
       gradientUnits="userSpaceOnUse"
       gradientTransform="translate(-667.74309,-362.30955)"
       x1="-417.06381"
       y1="874.38275"
       x2="-419.88397"
       y2="309.80219" />
    <linearGradient
       inkscape:collect="always"
       xlink:href="#linearGradient5766"
       id="linearGradient4028"
       gradientUnits="userSpaceOnUse"
       gradientTransform="translate(-658.90426,-363.4144)"
       x1="-169.8799"
       y1="224.77332"
       x2="-166.96086"
       y2="788.24902" />
    <linearGradient
       inkscape:collect="always"
       xlink:href="#linearGradient4250"
       id="linearGradient4161"
       gradientUnits="userSpaceOnUse"
       gradientTransform="translate(-667.74309,-362.30955)"
       x1="-417.06381"
       y1="874.38275"
       x2="-419.88397"
       y2="309.80219" />
    <linearGradient
       inkscape:collect="always"
       xlink:href="#linearGradient5766"
       id="linearGradient4163"
       gradientUnits="userSpaceOnUse"
       gradientTransform="translate(-658.90426,-363.4144)"
       x1="-169.8799"
       y1="224.77332"
       x2="-166.96086"
       y2="788.24902" />
    <linearGradient
       inkscape:collect="always"
       xlink:href="#linearGradient5766"
       id="linearGradient4216"
       gradientUnits="userSpaceOnUse"
       gradientTransform="matrix(0.93962008,0,0,0.86797816,-450.53938,-16.548582)"
       x1="-169.8799"
       y1="224.77332"
       x2="-166.96086"
       y2="788.24902" />
    <linearGradient
       inkscape:collect="always"
       xlink:href="#linearGradient4250"
       id="linearGradient4219"
       gradientUnits="userSpaceOnUse"
       gradientTransform="matrix(0.93962008,0,0,0.86797816,-458.84453,-15.589597)"
       x1="-417.06381"
       y1="874.38275"
       x2="-419.88397"
       y2="309.80219" />
    <linearGradient
       inkscape:collect="always"
       xlink:href="#linearGradient4250"
       id="linearGradient4280"
       gradientUnits="userSpaceOnUse"
       gradientTransform="matrix(0.93962008,0,0,0.86797816,-458.84453,-15.589597)"
       x1="-417.06381"
       y1="874.38275"
       x2="-419.88397"
       y2="309.80219" />
    <linearGradient
       inkscape:collect="always"
       xlink:href="#linearGradient5766"
       id="linearGradient4282"
       gradientUnits="userSpaceOnUse"
       gradientTransform="matrix(0.93962008,0,0,0.86797816,-450.53938,-16.548582)"
       x1="-169.8799"
       y1="224.77332"
       x2="-166.96086"
       y2="788.24902" />
  </defs>
  <sodipodi:namedview
     id="base"
     pagecolor="#0021ff"
     bordercolor="#666666"
     borderopacity="1.0"
     inkscape:pageopacity="0"
     inkscape:pageshadow="2"
     inkscape:zoom="0.35"
     inkscape:cx="1359.1779"
     inkscape:cy="180.95416"
     inkscape:document-units="px"
     inkscape:current-layer="layer1"
     showgrid="false"
     fit-margin-top="0"
     fit-margin-left="0"
     fit-margin-right="0"
     fit-margin-bottom="0"
     inkscape:window-width="1600"
     inkscape:window-height="838"
     inkscape:window-x="-8"
     inkscape:window-y="-8"
     inkscape:window-maximized="1" />
  <metadata
     id="metadata7">
    <rdf:RDF>
      <cc:Work
         rdf:about="">
        <dc:format>image/svg+xml</dc:format>
        <dc:type
           rdf:resource="http://purl.org/dc/dcmitype/StillImage" />
        <dc:title></dc:title>
      </cc:Work>
    </rdf:RDF>
  </metadata>
  <g
     inkscape:label="Layer 1"
     inkscape:groupmode="layer"
     id="layer1"
     transform="translate(1047.8813,-179.8665)">
    <g
       id="g4228"
       style="stroke:#ffffff;stroke-width:2;stroke-miterlimit:4;stroke-opacity:1;stroke-dasharray:none"
       transform="translate(62.857143,40)">
      <path
         sodipodi:nodetypes="cccccccccccccccccccccccccc"
         inkscape:connector-curvature="0"
         id="path3010"
         d="m -853.15084,249.77975 c -20.03167,30.11467 -41.1034,62.82139 -65.07085,90.48699 -26.83715,33.04548 -54.19992,66.01793 -80.16519,99.63216 -16.46412,24.83821 -34.82102,48.34581 -43.19202,75.61922 -3.9886,13.90161 -7.5055,28.05436 -6.0653,42.68094 -0.7718,15.16164 0.1443,30.28922 4.4309,45.08488 7.1794,23.27684 17.9578,45.89063 33.3075,65.63827 12.32164,16.27558 29.41295,28.815 45.95458,41.41623 21.49889,11.69253 42.1275,21.9774 66.947,26.14258 14.0849,3.70421 32.88125,6.63579 47.65508,5.27085 22.69615,0.56042 38.97638,-4.04095 60.75697,-9.39029 17.89539,-7.09725 32.4857,-12.87957 48.05868,-23.89484 18.15981,-10.20114 36.26369,-24.4349 47.54234,-40.556 15.63579,-22.17286 23.84676,-32.45856 33.80615,-67.64601 3.79395,-22.25378 6.33588,-45.10269 1.22533,-67.3468 -3.31837,-19.07138 -12.95982,-36.52198 -21.09471,-54.10634 -31.25273,-49.78493 -71.02149,-93.18177 -106.84926,-140.09379 -23.39767,-26.77254 -45.09932,-60.40967 -67.2472,-88.93805 z m 1.33548,107.49715 c 35.49481,39.39772 74.32282,82.39021 104.78142,126.24942 19.16897,28.64124 35.59692,63.53882 27.94533,98.28778 -5.76185,36.86703 -33.81817,67.80483 -68.05674,86.57243 -35.54291,16.46688 -74.25066,21.44563 -113.94293,7.61591 -46.76668,-17.75923 -83.87989,-60.8879 -87.05148,-107.47266 -1.42681,-37.90125 21.53985,-72.73712 44.76613,-102.33425 28.84906,-35.98851 62.71428,-73.22394 91.55827,-108.91863 z"
         style="fill:url(#linearGradient4280);fill-opacity:1;fill-rule:evenodd;stroke:#ffffff;stroke-width:2;stroke-miterlimit:4;stroke-opacity:1;stroke-dasharray:none" />
      <path
         sodipodi:nodetypes="cccccccccccccccccccccccccc"
         inkscape:connector-curvature="0"
         id="path3012"
         d="m -739.46004,348.55657 c 13.14981,15.98316 26.29963,31.96632 39.44944,47.94948 30.97128,-36.9211 61.94256,-73.8422 92.91383,-110.76329 15.35764,16.50567 28.20271,35.16197 45.6167,53.06257 12.49196,14.47404 27.93237,31.82949 40.09605,49.46326 20.13082,25.21261 38.52849,49.23664 47.0465,80.60897 2.31748,18.21598 1.80499,32.62937 -2.68028,52.5956 -4.47777,15.9693 -13.5157,30.91626 -23.90264,44.19426 -13.26382,13.61702 -27.52055,26.85537 -45.44039,34.87909 -26.79091,10.28067 -56.90422,16.87937 -85.65138,10.29367 -4.87591,17.68978 -10.78891,39.20422 -23.35822,53.70341 10.6306,2.98831 20.2151,4.14664 31.06076,4.98194 15.72233,1.62508 29.95425,0.1146 44.79762,-0.76992 23.01202,-2.71751 45.65566,-9.77055 65.85543,-20.22428 17.54574,-10.72114 35.28811,-21.33914 50.0038,-35.19591 12.44695,-13.37027 21.5077,-27.7087 31.37662,-43.17488 7.18836,-12.22523 13.08042,-28.0022 15.87614,-41.89571 4.13578,-14.40208 3.94415,-29.62706 4.72018,-44.39549 -2.30203,-16.19541 -3.38341,-32.67109 -9.57772,-48.03458 -9.54257,-21.47796 -22.54559,-41.65865 -35.19266,-61.36243 -17.28165,-23.34674 -36.20803,-44.47386 -53.35485,-67.93326 -21.78718,-27.23826 -45.03761,-53.48173 -64.65067,-82.15341 -10.65596,-14.94944 -21.18332,-28.51007 -34.45774,-44.61123 -5.38827,6.75075 -25.89354,38.80429 -30.69263,46.53562 -21.84574,26.72972 -19.67724,25.73434 -44.62876,56.73659 -16.28095,23.04998 -36.80057,44.28509 -55.22513,65.50993 z"
         style="fill:url(#linearGradient4282);fill-opacity:1;stroke:#ffffff;stroke-width:2;stroke-miterlimit:4;stroke-opacity:1;stroke-dasharray:none" />
      <g
         id="english"
         style="font-size:76.44763947px;font-style:normal;font-variant:normal;font-weight:bold;font-stretch:normal;text-align:start;line-height:125%;letter-spacing:0px;word-spacing:0px;writing-mode:lr-tb;text-anchor:start;fill:#00529b;fill-opacity:1;stroke:#ffffff;stroke-width:2.21462131;stroke-miterlimit:4;stroke-opacity:1;stroke-dasharray:none;font-family:Sans;-inkscape-font-specification:Sans Bold"
         transform="matrix(0.95031841,0,0,0.85820677,168.58029,298.88718)">
        <path
           style="stroke:#ffffff;stroke-width:2.21462131;stroke-miterlimit:4;stroke-opacity:1;stroke-dasharray:none"
           id="path3087"
           d="m -527.37911,385.24512 0,-54.72278 40.57548,0 0,9.25734 -29.52641,0 0,12.13158 27.47337,0 0,9.22 -27.47337,0 0,14.89385 30.57159,0 0,9.22001 z"
           inkscape:connector-curvature="0" />
        <path
           style="stroke:#ffffff;stroke-width:2.21462131;stroke-miterlimit:4;stroke-opacity:1;stroke-dasharray:none"
           id="path3089"
           d="m -450.85682,365.12535 0,-9.22 23.81523,0 0,21.79952 c -2.31438,2.23968 -5.66768,4.21184 -10.05988,5.91648 -4.3923,1.70464 -8.84054,2.55696 -13.34474,2.55697 -5.72365,-10e-6 -10.71315,-1.20072 -14.96851,-3.60215 -4.2554,-2.40143 -7.45316,-5.8356 -9.59328,-10.30252 -2.14014,-4.46689 -3.21021,-9.32574 -3.21021,-14.57656 0,-5.6987 1.19449,-10.76285 3.58349,-15.19247 2.38897,-4.42954 5.88536,-7.82638 10.48915,-10.19053 3.50881,-1.81658 7.87617,-2.72489 13.10211,-2.72494 6.79365,5e-5 12.10043,1.42473 15.92037,4.27405 3.81984,2.84941 6.27726,6.78751 7.37227,11.81429 l -10.97442,2.05304 c -0.77148,-2.68757 -2.22105,-4.80904 -4.3487,-6.36442 -2.12773,-1.55528 -4.78424,-2.33295 -7.96952,-2.33299 -4.82777,4e-5 -8.66633,1.53049 -11.51567,4.59133 -2.84939,3.06093 -4.27407,7.6025 -4.27405,13.62471 -2e-5,6.49508 1.44333,11.36637 4.33004,14.61389 2.88667,3.24754 6.66923,4.8713 11.3477,4.87129 2.3143,1e-5 4.63485,-0.45414 6.96166,-1.36247 2.32673,-0.9083 4.32378,-2.00947 5.99113,-3.30352 l 0,-6.943 z"
           inkscape:connector-curvature="0" />
        <path
           style="stroke:#ffffff;stroke-width:2.21462131;stroke-miterlimit:4;stroke-opacity:1;stroke-dasharray:none"
           id="path3091"
           d="m -402.51713,385.24512 0,-23.03135 -20.04511,-31.69143 12.9528,0 12.87814,21.65021 12.61685,-21.65021 12.72883,0 -20.11977,31.76609 0,22.95669 z"
           inkscape:connector-curvature="0" />
        <path
           style="stroke:#ffffff;stroke-width:2.21462131;stroke-miterlimit:4;stroke-opacity:1;stroke-dasharray:none"
           id="path3093"
           d="m -365.82376,385.24512 0,-54.72278 17.73078,0 c 6.719,6e-5 11.09881,0.2738 13.13944,0.82122 3.13551,0.82127 5.7609,2.60679 7.8762,5.35656 2.1152,2.74987 3.17282,6.30224 3.17287,10.65713 -5e-5,3.35955 -0.60974,6.18403 -1.82907,8.47344 -1.21942,2.28948 -2.76853,4.08744 -4.64733,5.39389 -1.87888,1.3065 -3.78882,2.17127 -5.72984,2.59429 -2.63787,0.52262 -6.45776,0.78391 -11.45968,0.78389 l -7.20429,0 0,20.64236 z m 11.04908,-45.46544 0,15.52842 6.04712,0 c 4.35491,3e-5 7.26648,-0.28615 8.73474,-0.85854 1.4682,-0.57233 2.61915,-1.4682 3.45284,-2.68761 0.83362,-1.21935 1.25045,-2.63781 1.25049,-4.25539 -4e-5,-1.99078 -0.58484,-3.63321 -1.75442,-4.92729 -1.16964,-1.29399 -2.65031,-2.10276 -4.44202,-2.42632 -1.31895,-0.2488 -3.96923,-0.37323 -7.95086,-0.37327 z"
           inkscape:connector-curvature="0" />
        <path
           style="stroke:#ffffff;stroke-width:2.21462131;stroke-miterlimit:4;stroke-opacity:1;stroke-dasharray:none"
           id="path3095"
           d="m -302.4409,385.24512 0,-45.46544 -16.23765,0 0,-9.25734 43.48706,0 0,9.25734 -16.20033,0 0,45.46544 z"
           inkscape:connector-curvature="0" />
        <path
           style="stroke:#ffffff;stroke-width:2.21462131;stroke-miterlimit:4;stroke-opacity:1;stroke-dasharray:none"
           id="path3097"
           d="m -268.36048,385.24512 0,-54.72278 11.04907,0 0,54.72278 z"
           inkscape:connector-curvature="0" />
        <path
           style="stroke:#ffffff;stroke-width:2.21462131;stroke-miterlimit:4;stroke-opacity:1;stroke-dasharray:none"
           id="path3099"
           d="m -197.47471,385.24512 -12.0196,0 -4.77798,-12.43021 -21.87418,0 -4.51668,12.43021 -11.72097,0 21.31425,-54.72278 11.68365,0 z m -20.34373,-21.65021 -7.54025,-20.30641 -7.39093,20.30641 z"
           inkscape:connector-curvature="0" />
        <path
           style="stroke:#ffffff;stroke-width:2.21462131;stroke-miterlimit:4;stroke-opacity:1;stroke-dasharray:none"
           id="path3101"
           d="m -191.46492,385.24512 0,-54.72278 10.75045,0 22.39677,36.54407 0,-36.54407 10.26519,0 0,54.72278 -11.0864,0 -22.06082,-35.68552 0,35.68552 z"
           inkscape:connector-curvature="0" />
        <path
           style="stroke:#ffffff;stroke-width:2.21462131;stroke-miterlimit:4;stroke-opacity:1;stroke-dasharray:none"
           id="path3103"
           d="m -115.12924,385.24512 0,-54.72278 17.730779,0 c 6.719001,6e-5 11.098809,0.2738 13.139438,0.82122 3.135508,0.82127 5.760905,2.60679 7.876197,5.35656 2.115204,2.74987 3.172829,6.30224 3.172876,10.65713 -4.7e-5,3.35955 -0.609737,6.18403 -1.829069,8.47344 -1.219425,2.28948 -2.768533,4.08744 -4.64733,5.39389 -1.878879,1.3065 -3.788824,2.17127 -5.72984,2.59429 -2.637875,0.52262 -6.457764,0.78391 -11.459681,0.78389 l -7.20429,0 0,20.64236 z m 11.04908,-45.46544 0,15.52842 6.047124,0 c 4.3549,3e-5 7.266477,-0.28615 8.73474,-0.85854 1.4682,-0.57233 2.619144,-1.4682 3.452835,-2.68761 0.833622,-1.21935 1.25045,-2.63781 1.250487,-4.25539 -3.7e-5,-1.99078 -0.58484,-3.63321 -1.754414,-4.92729 -1.169642,-1.29399 -2.650316,-2.10276 -4.442026,-2.42632 -1.318949,-0.2488 -3.969231,-0.37323 -7.950853,-0.37327 z"
           inkscape:connector-curvature="0" />
        <path
           style="stroke:#ffffff;stroke-width:2.21462131;stroke-miterlimit:4;stroke-opacity:1;stroke-dasharray:none"
           id="path3105"
           d="m -64.027303,385.24512 0,-54.72278 23.255312,0 c 5.848011,6e-5 10.097171,0.49154 12.747495,1.47446 2.65024,0.98302 4.77171,2.73121 6.364415,5.24457 1.59261,2.51347 2.388938,5.38771 2.388989,8.62276 -5.1e-5,4.10611 -1.206986,7.49673 -3.620811,10.17187 -2.413919,2.67519 -6.022283,4.36117 -10.825105,5.05793 2.38895,1.3936 4.361108,2.92405 5.916479,4.59134 1.555288,1.66733 3.651873,4.62868 6.28976,8.88405 l 6.681703,10.6758 -13.214094,0 -7.988181,-11.90762 c -2.836955,-4.25537 -4.778007,-6.93676 -5.82316,-8.04417 -1.04521,-1.10738 -2.152604,-1.86638 -3.322188,-2.27701 -1.169632,-0.41058 -3.023585,-0.61588 -5.561864,-0.61591 l -2.239677,0 0,22.84471 z m 11.049073,-31.57945 8.174821,0 c 5.300538,3e-5 8.61028,-0.22393 9.929234,-0.6719 1.318885,-0.4479 2.351624,-1.21935 3.09822,-2.31433 0.74652,-1.09492 1.119799,-2.46361 1.119838,-4.10608 -3.9e-5,-1.84147 -0.491523,-3.32836 -1.474454,-4.46069 -0.983005,-1.13223 -2.37036,-1.84769 -4.162066,-2.14635 -0.895903,-0.12439 -3.583513,-0.1866 -8.062837,-0.18664 l -8.622756,0 z"
           inkscape:connector-curvature="0" />
        <path
           style="stroke:#ffffff;stroke-width:2.21462131;stroke-miterlimit:4;stroke-opacity:1;stroke-dasharray:none"
           id="path3107"
           d="m -11.058916,358.21968 c -3e-6,-5.57427 0.833653,-10.2527 2.5009725,-14.03531 1.2442579,-2.78711 2.9426779,-5.28808 5.0952651,-7.50291 2.1525653,-2.21475 4.510445,-3.85717 7.0736463,-4.92729 3.4092646,-1.4433 7.3411381,-2.16497 11.7956321,-2.16502 8.062799,5e-5 14.514306,2.50102 19.354541,7.50291 4.840137,5.00199 7.26023,11.95743 7.260286,20.86633 -5.6e-5,8.8343 -2.401485,15.74618 -7.204294,20.73567 -4.802907,4.98951 -11.223308,7.48425 -19.261221,7.48426 -8.1375151,-10e-6 -14.60768647,-2.48231 -19.4105339,-7.44693 -4.8028685,-4.96461 -7.2042971,-11.80183 -7.2042941,-20.51171 z M 0.32610837,357.8464 c -1.47e-5,6.19646 1.43088853,10.89356 4.29271413,14.0913 2.8617876,3.19777 6.4950375,4.79665 10.8997615,4.79664 4.404663,1e-5 8.019249,-1.58642 10.843769,-4.75931 2.824438,-3.17286 4.236677,-7.93217 4.236722,-14.27794 -4.5e-5,-6.27106 -1.374956,-10.94949 -4.124738,-14.03531 -2.749864,-3.08573 -6.401778,-4.62862 -10.955753,-4.62866 -4.554036,4e-5 -8.2246135,1.56159 -11.0117453,4.68465 -2.7871697,3.12315 -4.18074503,7.83269 -4.18073033,14.12863 z"
           inkscape:connector-curvature="0" />
        <path
           style="stroke:#ffffff;stroke-width:2.21462131;stroke-miterlimit:4;stroke-opacity:1;stroke-dasharray:none"
           id="path3109"
           d="m 70.353332,330.52234 11.011745,0 0,34.64034 c -3.6e-5,4.52914 -0.3982,8.01308 -1.194494,10.45183 -1.070102,3.18532 -3.011153,5.74228 -5.82316,7.67089 -2.812065,1.92861 -6.519971,2.89291 -11.123729,2.89292 -5.400123,-10e-6 -9.555964,-1.51179 -12.467535,-4.53535 -2.911583,-3.02356 -4.379814,-7.45936 -4.404698,-13.30741 l 10.414498,-1.1945 c 0.124415,3.13556 0.584792,5.35035 1.381134,6.64438 1.19448,1.96594 3.011105,2.94891 5.449881,2.9489 2.463623,1e-5 4.205592,-0.703 5.225912,-2.10902 1.020273,-1.40601 1.530421,-4.32381 1.530446,-8.75341 z"
           inkscape:connector-curvature="0" />
        <path
           style="stroke:#ffffff;stroke-width:2.21462131;stroke-miterlimit:4;stroke-opacity:1;stroke-dasharray:none"
           id="path3111"
           d="m 93.16068,385.24512 0,-54.72278 40.57548,0 0,9.25734 -29.52641,0 0,12.13158 27.47337,0 0,9.22 -27.47337,0 0,14.89385 30.57159,0 0,9.22001 z"
           inkscape:connector-curvature="0" />
        <path
           style="stroke:#ffffff;stroke-width:2.21462131;stroke-miterlimit:4;stroke-opacity:1;stroke-dasharray:none"
           id="path3113"
           d="m 179.23893,365.12535 10.71312,3.39685 c -1.64248,5.97248 -4.37363,10.40828 -8.19348,13.30741 -3.81993,2.89914 -8.66634,4.3487 -14.53924,4.34871 -7.26653,-10e-6 -13.23899,-2.48231 -17.91741,-7.44693 -4.67844,-4.96461 -7.01766,-11.75206 -7.01766,-20.3624 0,-9.10798 2.35166,-16.18162 7.05499,-21.22094 4.7033,-5.03922 10.88729,-7.55885 18.55199,-7.5589 6.69411,5e-5 12.13154,1.97843 16.31231,5.93514 2.48848,2.33926 4.35488,5.69878 5.59919,10.07855 l -10.93709,2.61295 c -0.64705,-2.83688 -1.99708,-5.07656 -4.05008,-6.71903 -2.05307,-1.64238 -4.54782,-2.4636 -7.48425,-2.46364 -4.05633,4e-5 -7.34741,1.45583 -9.87325,4.36737 -2.52587,2.91162 -3.7888,7.62737 -3.78878,14.14729 -2e-5,6.91813 1.24425,11.84542 3.73279,14.78187 2.48851,2.93647 5.7236,4.4047 9.70527,4.40469 2.93643,1e-5 5.46229,-0.93318 7.57757,-2.79959 2.11522,-1.86639 3.63322,-4.80285 4.55401,-8.8094 z"
           inkscape:connector-curvature="0" />
        <path
           style="stroke:#ffffff;stroke-width:2.21462131;stroke-miterlimit:4;stroke-opacity:1;stroke-dasharray:none"
           id="path3115"
           d="m 211.7889,385.24512 0,-45.46544 -16.23766,0 0,-9.25734 43.48706,0 0,9.25734 -16.20033,0 0,45.46544 z"
           inkscape:connector-curvature="0" />
        <path
           style="stroke:#ffffff;stroke-width:2.21462131;stroke-miterlimit:4;stroke-opacity:1;stroke-dasharray:none"
           id="path3117"
           d="m 243.4057,367.43969 10.75045,-1.04519 c 0.647,3.60839 1.9597,6.25867 3.9381,7.95086 1.97836,1.69221 4.64731,2.5383 8.00684,2.5383 3.55857,0 6.23996,-0.75277 8.04418,-2.25834 1.80415,-1.50555 2.70624,-3.26619 2.70627,-5.28191 -3e-5,-1.29402 -0.37953,-2.39519 -1.1385,-3.30352 -0.75904,-0.9083 -2.08418,-1.6984 -3.97543,-2.37033 -1.29406,-0.44791 -4.24297,-1.24424 -8.84672,-2.38899 -5.92272,-1.4682 -10.07856,-3.27239 -12.46753,-5.41255 -3.35953,-3.01109 -5.03928,-6.68167 -5.03928,-11.01174 0,-2.78711 0.7901,-5.39385 2.37033,-7.82021 1.5802,-2.42626 3.85721,-4.274 6.83101,-5.5432 2.97378,-1.26909 6.56348,-1.90367 10.76911,-1.90372 6.86832,5e-5 12.03823,1.50561 15.50977,4.51668 3.47145,3.01117 5.2943,7.03014 5.46854,12.05692 l -11.04907,0.48527 c -0.47286,-2.812 -1.48693,-4.83393 -3.04223,-6.06579 -1.55536,-1.23178 -3.88835,-1.84769 -6.99899,-1.84774 -3.21022,5e-5 -5.72364,0.65951 -7.54024,1.97838 -1.16963,0.84615 -1.75443,1.97843 -1.75442,3.39685 -1e-5,1.29407 0.54746,2.40147 1.64243,3.32218 1.39356,1.16965 4.77796,2.38903 10.1532,3.65814 5.3752,1.26919 9.35062,2.58189 11.92628,3.9381 2.57559,1.35628 4.5913,3.21023 6.04713,5.56187 1.45574,2.35168 2.18364,5.25704 2.18369,8.71607 -5e-5,3.13556 -0.87104,6.07203 -2.61296,8.8094 -1.74201,2.73739 -4.20566,4.77176 -7.39093,6.10312 -3.18536,1.33136 -7.15456,1.99704 -11.90762,1.99704 -6.91813,0 -12.23114,-1.59888 -15.93903,-4.79664 -3.70792,-3.19775 -5.92271,-7.85752 -6.64438,-13.97931 z"
           inkscape:connector-curvature="0" />
        <path
           style="stroke:#ffffff;stroke-width:2.21462131;stroke-miterlimit:4;stroke-opacity:1;stroke-dasharray:none"
           id="path3119"
           d="m 316.23253,358.21968 c -10e-6,-5.57427 0.83365,-10.2527 2.50097,-14.03531 1.24426,-2.78711 2.94268,-5.28808 5.09526,-7.50291 2.15257,-2.21475 4.51045,-3.85717 7.07365,-4.92729 3.40927,-1.4433 7.34114,-2.16497 11.79563,-2.16502 8.0628,5e-5 14.51431,2.50102 19.35454,7.50291 4.84014,5.00199 7.26023,11.95743 7.26029,20.86633 -6e-5,8.8343 -2.40149,15.74618 -7.20429,20.73567 -4.80291,4.98951 -11.22331,7.48425 -19.26123,7.48426 -8.13751,-10e-6 -14.60768,-2.48231 -19.41053,-7.44693 -4.80287,-4.96461 -7.2043,-11.80183 -7.20429,-20.51171 z m 11.38502,-0.37328 c -10e-6,6.19646 1.43089,10.89356 4.29272,14.0913 2.86178,3.19777 6.49503,4.79665 10.89976,4.79664 4.40466,1e-5 8.01925,-1.58642 10.84377,-4.75931 2.82443,-3.17286 4.23667,-7.93217 4.23672,-14.27794 -5e-5,-6.27106 -1.37496,-10.94949 -4.12474,-14.03531 -2.74986,-3.08573 -6.40178,-4.62862 -10.95575,-4.62866 -4.55404,4e-5 -8.22462,1.56159 -11.01175,4.68465 -2.78717,3.12315 -4.18074,7.83269 -4.18073,14.12863 z"
           inkscape:connector-curvature="0" />
        <path
           style="stroke:#ffffff;stroke-width:2.21462131;stroke-miterlimit:4;stroke-opacity:1;stroke-dasharray:none"
           id="path3121"
           d="m 377.89829,385.24512 0,-54.72278 17.73078,0 c 6.719,6e-5 11.09881,0.2738 13.13943,0.82122 3.13551,0.82127 5.76091,2.60679 7.8762,5.35656 2.11521,2.74987 3.17283,6.30224 3.17288,10.65713 -5e-5,3.35955 -0.60974,6.18403 -1.82907,8.47344 -1.21943,2.28948 -2.76854,4.08744 -4.64733,5.39389 -1.87888,1.3065 -3.78883,2.17127 -5.72984,2.59429 -2.63788,0.52262 -6.45777,0.78391 -11.45968,0.78389 l -7.2043,0 0,20.64236 z m 11.04907,-45.46544 0,15.52842 6.04713,0 c 4.3549,3e-5 7.26648,-0.28615 8.73474,-0.85854 1.4682,-0.57233 2.61914,-1.4682 3.45284,-2.68761 0.83362,-1.21935 1.25045,-2.63781 1.25048,-4.25539 -3e-5,-1.99078 -0.58484,-3.63321 -1.75441,-4.92729 -1.16964,-1.29399 -2.65032,-2.10276 -4.44203,-2.42632 -1.31895,-0.2488 -3.96923,-0.37323 -7.95085,-0.37327 z"
           inkscape:connector-curvature="0" />
        <path
           style="stroke:#ffffff;stroke-width:2.21462131;stroke-miterlimit:4;stroke-opacity:1;stroke-dasharray:none"
           id="path3123"
           d="m 428.96293,385.24512 0,-54.72278 40.57548,0 0,9.25734 -29.52641,0 0,12.13158 27.47337,0 0,9.22 -27.47337,0 0,14.89385 30.57159,0 0,9.22001 z"
           inkscape:connector-curvature="0" />
        <path
           style="stroke:#ffffff;stroke-width:2.21462131;stroke-miterlimit:4;stroke-opacity:1;stroke-dasharray:none"
           id="path3125"
           d="m 480.06489,385.24512 0,-54.72278 23.25531,0 c 5.84801,6e-5 10.09717,0.49154 12.7475,1.47446 2.65024,0.98302 4.77171,2.73121 6.36441,5.24457 1.59261,2.51347 2.38894,5.38771 2.38899,8.62276 -5e-5,4.10611 -1.20698,7.49673 -3.62081,10.17187 -2.41392,2.67519 -6.02228,4.36117 -10.8251,5.05793 2.38895,1.3936 4.3611,2.92405 5.91648,4.59134 1.55528,1.66733 3.65187,4.62868 6.28975,8.88405 l 6.68171,10.6758 -13.2141,0 -7.98818,-11.90762 c -2.83695,-4.25537 -4.778,-6.93676 -5.82316,-8.04417 -1.04521,-1.10738 -2.1526,-1.86638 -3.32219,-2.27701 -1.16963,-0.41058 -3.02358,-0.61588 -5.56186,-0.61591 l -2.23968,0 0,22.84471 z m 11.04907,-31.57945 8.17482,0 c 5.30054,3e-5 8.61028,-0.22393 9.92924,-0.6719 1.31888,-0.4479 2.35162,-1.21935 3.09822,-2.31433 0.74652,-1.09492 1.1198,-2.46361 1.11984,-4.10608 -4e-5,-1.84147 -0.49153,-3.32836 -1.47446,-4.46069 -0.983,-1.13223 -2.37036,-1.84769 -4.16206,-2.14635 -0.89591,-0.12439 -3.58352,-0.1866 -8.06284,-0.18664 l -8.62276,0 z"
           inkscape:connector-curvature="0" />
        <path
           style="stroke:#ffffff;stroke-width:2.21462131;stroke-miterlimit:4;stroke-opacity:1;stroke-dasharray:none"
           id="path3127"
           d="m 584.62053,385.24512 -12.0196,0 -4.77797,-12.43021 -21.87418,0 -4.51668,12.43021 -11.72098,0 21.31426,-54.72278 11.68365,0 z m -20.34373,-21.65021 -7.54024,-20.30641 -7.39094,20.30641 z"
           inkscape:connector-curvature="0" />
        <path
           style="stroke:#ffffff;stroke-width:2.21462131;stroke-miterlimit:4;stroke-opacity:1;stroke-dasharray:none"
           id="path3129"
           d="m 602.83657,385.24512 0,-45.46544 -16.23766,0 0,-9.25734 43.48706,0 0,9.25734 -16.20033,0 0,45.46544 z"
           inkscape:connector-curvature="0" />
        <path
           style="stroke:#ffffff;stroke-width:2.21462131;stroke-miterlimit:4;stroke-opacity:1;stroke-dasharray:none"
           id="path3131"
           d="m 636.91689,385.24512 0,-54.72278 11.04907,0 0,54.72278 z"
           inkscape:connector-curvature="0" />
        <path
           style="stroke:#ffffff;stroke-width:2.21462131;stroke-miterlimit:4;stroke-opacity:1;stroke-dasharray:none"
           id="path3133"
           d="m 656.21544,358.21968 c -10e-6,-5.57427 0.83365,-10.2527 2.50097,-14.03531 1.24426,-2.78711 2.94268,-5.28808 5.09526,-7.50291 2.15257,-2.21475 4.51045,-3.85717 7.07365,-4.92729 3.40927,-1.4433 7.34114,-2.16497 11.79563,-2.16502 8.0628,5e-5 14.51431,2.50102 19.35454,7.50291 4.84014,5.00199 7.26023,11.95743 7.26029,20.86633 -6e-5,8.8343 -2.40148,15.74618 -7.20429,20.73567 -4.80291,4.98951 -11.22331,7.48425 -19.26123,7.48426 -8.13751,-10e-6 -14.60768,-2.48231 -19.41053,-7.44693 -4.80287,-4.96461 -7.2043,-11.80183 -7.20429,-20.51171 z m 11.38502,-0.37328 c -10e-6,6.19646 1.43089,10.89356 4.29272,14.0913 2.86178,3.19777 6.49503,4.79665 10.89976,4.79664 4.40466,1e-5 8.01925,-1.58642 10.84377,-4.75931 2.82443,-3.17286 4.23667,-7.93217 4.23672,-14.27794 -5e-5,-6.27106 -1.37496,-10.94949 -4.12474,-14.03531 -2.74986,-3.08573 -6.40178,-4.62862 -10.95575,-4.62866 -4.55404,4e-5 -8.22462,1.56159 -11.01175,4.68465 -2.78717,3.12315 -4.18074,7.83269 -4.18073,14.12863 z"
           inkscape:connector-curvature="0" />
        <path
           style="stroke:#ffffff;stroke-width:2.21462131;stroke-miterlimit:4;stroke-opacity:1;stroke-dasharray:none"
           id="path3135"
           d="m 717.99325,385.24512 0,-54.72278 10.75044,0 22.39677,36.54407 0,-36.54407 10.26519,0 0,54.72278 -11.0864,0 -22.06082,-35.68552 0,35.68552 z"
           inkscape:connector-curvature="0" />
        <path
           style="stroke:#ffffff;stroke-width:2.21462131;stroke-miterlimit:4;stroke-opacity:1;stroke-dasharray:none"
           id="path3137"
           d="m 842.74324,378.56341 -6.34575,8.10017 c -3.11071,-1.518 -6.09694,-3.60837 -8.95871,-6.2711 -2.21482,1.99083 -4.56648,3.45906 -7.05498,4.4047 -2.48856,0.94564 -5.44991,1.41846 -8.88405,1.41846 -6.81859,0 -11.94495,-1.91616 -15.37912,-5.7485 -2.66273,-2.96134 -3.99409,-6.37063 -3.99409,-10.22786 0,-3.50881 1.04518,-6.66302 3.13555,-9.46263 2.09036,-2.79957 5.21346,-5.23211 9.36932,-7.29762 -1.86641,-2.21476 -3.27243,-4.32378 -4.21806,-6.32708 -0.94565,-2.00323 -1.41847,-3.90073 -1.41846,-5.69252 -1e-5,-3.30969 1.32513,-6.11551 3.97542,-8.41745 2.65027,-2.30184 6.42661,-3.45278 11.32904,-3.45283 4.72817,5e-5 8.42364,1.20699 11.0864,3.62081 2.66268,2.41392 3.99405,5.36283 3.99409,8.84672 -4e-5,2.21483 -0.6595,4.31764 -1.97838,6.30842 -1.31896,1.99086 -3.98169,4.24298 -7.98819,6.75636 l 7.61491,10.04122 c 0.89583,-1.59264 1.66727,-3.67056 2.31433,-6.23377 l 9.4813,2.16502 c -0.94569,3.35954 -1.76691,5.81696 -2.46365,7.37227 -0.69683,1.55535 -1.44339,2.85561 -2.23967,3.90077 1.16956,1.09497 2.68134,2.29568 4.53534,3.60215 1.85391,1.30649 3.21637,2.17125 4.08741,2.59429 z m -28.55588,-29.75037 2.83693,-2.16502 c 2.09033,-1.61751 3.13551,-3.22261 3.13554,-4.81531 -3e-5,-1.34376 -0.50395,-2.48848 -1.51178,-3.43417 -1.00788,-0.94559 -2.37035,-1.41841 -4.08741,-1.41846 -1.66734,5e-5 -2.97381,0.41688 -3.91943,1.25049 -0.94567,0.8337 -1.41849,1.798 -1.41847,2.89291 -2e-5,1.29408 0.79631,2.86185 2.38899,4.70332 z m -4.10607,11.38502 c -2.4139,1.21941 -4.21808,2.68764 -5.41255,4.4047 -1.19451,1.71711 -1.79176,3.47152 -1.79175,5.26324 -10e-6,2.26458 0.74033,4.11231 2.22102,5.5432 1.48065,1.43092 3.46525,2.14637 5.9538,2.14636 1.64241,10e-6 3.22263,-0.3235 4.74065,-0.97053 1.51798,-0.64701 3.17285,-1.71707 4.96462,-3.2102 z"
           inkscape:connector-curvature="0" />
        <path
           style="stroke:#ffffff;stroke-width:2.21462131;stroke-miterlimit:4;stroke-opacity:1;stroke-dasharray:none"
           id="path3139"
           d="m 870.62721,385.24512 0,-54.72278 16.53628,0 9.92924,37.32795 9.81725,-37.32795 16.57361,0 0,54.72278 -10.26519,0 0,-43.07646 -10.86243,43.07646 -10.63847,0 -10.8251,-43.07646 0,43.07646 z"
           inkscape:connector-curvature="0" />
        <path
           style="stroke:#ffffff;stroke-width:2.21462131;stroke-miterlimit:4;stroke-opacity:1;stroke-dasharray:none"
           id="path3141"
           d="m 983.88018,385.24512 -12.0196,0 -4.77798,-12.43021 -21.87418,0 -4.51668,12.43021 -11.72098,0 21.31426,-54.72278 11.68365,0 z m -20.34374,-21.65021 -7.54024,-20.30641 -7.39093,20.30641 z"
           inkscape:connector-curvature="0" />
        <path
           style="stroke:#ffffff;stroke-width:2.21462131;stroke-miterlimit:4;stroke-opacity:1;stroke-dasharray:none"
           id="path3143"
           d="m 989.44204,385.24512 0,-54.72278 11.04906,0 0,54.72278 z"
           inkscape:connector-curvature="0" />
        <path
           style="stroke:#ffffff;stroke-width:2.21462131;stroke-miterlimit:4;stroke-opacity:1;stroke-dasharray:none"
           id="path3145"
           d="m 1011.0922,385.24512 0,-54.72278 10.7505,0 22.3968,36.54407 0,-36.54407 10.2651,0 0,54.72278 -11.0864,0 -22.0608,-35.68552 0,35.68552 z"
           inkscape:connector-curvature="0" />
        <path
           style="stroke:#ffffff;stroke-width:2.21462131;stroke-miterlimit:4;stroke-opacity:1;stroke-dasharray:none"
           id="path3147"
           d="m 1078.5438,385.24512 0,-45.46544 -16.2376,0 0,-9.25734 43.487,0 0,9.25734 -16.2003,0 0,45.46544 z"
           inkscape:connector-curvature="0" />
        <path
           style="stroke:#ffffff;stroke-width:2.21462131;stroke-miterlimit:4;stroke-opacity:1;stroke-dasharray:none"
           id="path3149"
           d="m 1112.9602,385.24512 0,-54.72278 40.5755,0 0,9.25734 -29.5264,0 0,12.13158 27.4734,0 0,9.22 -27.4734,0 0,14.89385 30.5716,0 0,9.22001 z"
           inkscape:connector-curvature="0" />
        <path
           style="stroke:#ffffff;stroke-width:2.21462131;stroke-miterlimit:4;stroke-opacity:1;stroke-dasharray:none"
           id="path3151"
           d="m 1164.1369,385.24512 0,-54.72278 10.7505,0 22.3967,36.54407 0,-36.54407 10.2652,0 0,54.72278 -11.0864,0 -22.0608,-35.68552 0,35.68552 z"
           inkscape:connector-curvature="0" />
        <path
           style="stroke:#ffffff;stroke-width:2.21462131;stroke-miterlimit:4;stroke-opacity:1;stroke-dasharray:none"
           id="path3153"
           d="m 1268.6178,385.24512 -12.0196,0 -4.7779,-12.43021 -21.8742,0 -4.5167,12.43021 -11.721,0 21.3143,-54.72278 11.6836,0 z m -20.3437,-21.65021 -7.5402,-20.30641 -7.391,20.30641 z"
           inkscape:connector-curvature="0" />
        <path
           style="stroke:#ffffff;stroke-width:2.21462131;stroke-miterlimit:4;stroke-opacity:1;stroke-dasharray:none"
           id="path3155"
           d="m 1274.6276,385.24512 0,-54.72278 10.7505,0 22.3968,36.54407 0,-36.54407 10.2651,0 0,54.72278 -11.0864,0 -22.0608,-35.68552 0,35.68552 z"
           inkscape:connector-curvature="0" />
        <path
           style="stroke:#ffffff;stroke-width:2.21462131;stroke-miterlimit:4;stroke-opacity:1;stroke-dasharray:none"
           id="path3157"
           d="m 1364.7746,365.12535 10.7132,3.39685 c -1.6425,5.97248 -4.3737,10.40828 -8.1935,13.30741 -3.82,2.89914 -8.6664,4.3487 -14.5393,4.34871 -7.2665,-10e-6 -13.239,-2.48231 -17.9174,-7.44693 -4.6784,-4.96461 -7.0176,-11.75206 -7.0176,-20.3624 0,-9.10798 2.3516,-16.18162 7.055,-21.22094 4.7033,-5.03922 10.8872,-7.55885 18.5519,-7.5589 6.6942,5e-5 12.1316,1.97843 16.3124,5.93514 2.4884,2.33926 4.3548,5.69878 5.5991,10.07855 l -10.937,2.61295 c -0.6471,-2.83688 -1.9971,-5.07656 -4.0501,-6.71903 -2.0531,-1.64238 -4.5478,-2.4636 -7.4843,-2.46364 -4.0563,4e-5 -7.3474,1.45583 -9.8732,4.36737 -2.5259,2.91162 -3.7888,7.62737 -3.7888,14.14729 0,6.91813 1.2442,11.84542 3.7328,14.78187 2.4885,2.93647 5.7236,4.4047 9.7053,4.40469 2.9364,1e-5 5.4622,-0.93318 7.5775,-2.79959 2.1152,-1.86639 3.6332,-4.80285 4.554,-8.8094 z"
           inkscape:connector-curvature="0" />
        <path
           style="stroke:#ffffff;stroke-width:2.21462131;stroke-miterlimit:4;stroke-opacity:1;stroke-dasharray:none"
           id="path3159"
           d="m 1385.0064,385.24512 0,-54.72278 40.5755,0 0,9.25734 -29.5264,0 0,12.13158 27.4733,0 0,9.22 -27.4733,0 0,14.89385 30.5715,0 0,9.22001 z"
           inkscape:connector-curvature="0" />
      </g>
      <path
         id="path2998"
         transform="translate(-1047.8813,179.8665)"
         d="m 1250.6875,118.4375 c -2.2214,0.005 -3.8851,0.049 -4.4375,0.0937 -73.2715,0.0597 -135.5412,-0.0162 -208.8125,0.125 -0.519,81.19444 0.8003,162.55557 0.2813,243.75 l 79.4062,-0.46875 0.4688,-59.65625 c 50.8306,0.51162 103.3323,0.55009 153.6874,0.46875 19.0774,0.35065 40.7904,-4.2779 56,-12.59375 18.2789,-14.31727 19.6886,-20.8895 23.2813,-33.3125 3.3355,-19.64497 4.1252,-33.48927 2.5313,-53.5 0.9087,-17.79939 -0.5292,-35.14795 -8.625,-52.1875 -7.8114,-12.60356 -19.4773,-23.62483 -35.0313,-27.1875 -14.9229,-3.15353 -5.1898,-1.55164 -38.7813,-5.21875 -1.6366,-0.17867 -13.3046,-0.32676 -19.9687,-0.3125 z m -133.0313,60.3125 80.6563,0.71875 c 16.7273,0.52469 33.54,-0.46731 50.1875,0.59375 20.5212,-2.71822 26.5682,16.55639 25.1875,31.6875 5.1863,15.60138 -6.8834,28.2802 -23.125,30.3125 l -132.9063,0.5625 0,-63.875 z"
         style="fill:#00529b;fill-opacity:1;stroke:#ffffff;stroke-width:2;stroke-miterlimit:4;stroke-opacity:1;stroke-dasharray:none"
         inkscape:connector-curvature="0" />
      <path
         inkscape:connector-curvature="0"
         id="path4214"
         d="m 1080.8576,420.48598 0,-121.62729 54.3728,0.33329 c 29.905,0.18331 62.5386,0.46757 72.519,0.63171 l 18.1464,0.29841 4.7281,9.5899 c 2.6004,5.27444 20.2219,41.04971 39.1588,79.50058 18.9368,38.45089 34.6036,69.73792 34.8151,69.52674 0.2115,-0.21118 10.3178,-20.5587 22.4588,-45.21672 12.1408,-24.65802 22.7718,-46.23528 23.6245,-47.94947 0.8526,-1.71419 7.9084,-16.06307 15.6796,-31.88639 7.7711,-15.82333 14.8182,-30.11827 15.6601,-31.76653 l 1.5307,-2.99684 71.2704,0 71.2704,0 0.3255,92.18285 c 0.179,50.70058 0.4701,105.29105 0.6468,121.31217 l 0.3212,29.12931 -38.7341,0 -38.7342,0 0,-6.59306 c 0,-3.62618 0.6952,-41.22455 1.5423,-83.55195 0.8471,-42.3274 1.5698,-80.41127 1.606,-84.63082 l 0.066,-7.67191 -8.2648,-0.13136 -8.2648,-0.13135 -48.7542,90.79779 -48.7542,90.79778 -15.8317,0.31212 c -8.7075,0.17166 -24.0973,0.36857 -34.1997,0.43756 l -18.368,0.12544 -1.3567,-2.63105 c -0.7462,-1.44707 -13.162,-24.64262 -27.5907,-51.54568 -14.4288,-26.90304 -35.8015,-66.79507 -47.4951,-88.64896 l -21.2611,-39.73432 -7.6849,0.24235 c -4.2266,0.13329 -7.8222,0.36929 -7.9901,0.52443 -0.168,0.15514 0.084,38.74859 0.5591,85.76322 0.4754,47.01462 0.8593,87.77473 0.853,90.57801 l -0.011,5.09687 -34.648,0.30468 c -19.0565,0.16757 -36.5751,0.42868 -38.9305,0.58023 l -4.2823,0.27556 0,-121.6273 z"
         style="fill:#00529b;fill-opacity:1;fill-rule:nonzero;stroke:#ffffff;stroke-width:2;stroke-miterlimit:4;stroke-opacity:1;stroke-dasharray:none" />
      <path
         inkscape:connector-curvature="0"
         id="path4216"
         d="m 334.21226,513.41825 c -0.18952,-15.47119 -0.34456,-69.91957 -0.34456,-120.9964 l 0,-92.86697 131.97396,0.18713 c 72.58565,0.10293 135.94489,0.38111 140.79812,0.6182 10.22147,0.49931 14.12982,1.34262 21.36377,4.60964 6.21963,2.80892 12.19899,6.94453 18.61923,12.878 4.13376,3.82034 5.65435,5.62081 7.38739,8.7472 1.20017,2.16519 2.33298,4.8084 2.51743,5.87382 0.18444,1.06541 0.53906,1.93711 0.78806,1.93711 0.24899,0 0.4527,0.7552 0.4527,1.67822 0,0.92303 0.23359,1.67824 0.51914,1.67824 0.28546,0 0.51905,0.92782 0.51905,2.06182 0,1.13401 0.21386,2.26681 0.47535,2.51735 0.26141,0.25054 0.59441,1.75016 0.74005,3.33249 0.14555,1.58233 0.53201,5.57413 0.85862,8.87065 0.88588,8.94048 0.39859,47.82626 -0.66694,53.22391 -3.36638,17.05215 -9.14485,25.39539 -22.689,32.75971 -5.08363,2.76407 -15.76664,6.55886 -18.46438,6.55886 -0.48419,0 -1.7834,0.24993 -2.88718,0.55539 -3.41382,0.94485 -2.45259,1.672 3.05424,2.3103 12.82393,1.48644 22.30451,5.11131 29.36529,11.22777 1.75624,1.52136 5.56668,8.90084 6.83254,13.23246 2.06651,7.07081 2.41407,10.58642 2.70037,27.31476 0.15551,9.08647 0.11257,21.76311 -0.0956,28.17031 l -0.37829,11.64948 -38.01411,0 -38.01412,0 -0.32351,-15.22397 c -0.46079,-21.68261 -1.83188,-29.39923 -6.49775,-36.57157 -3.24902,-4.9943 -6.31848,-6.63934 -16.1765,-8.66964 -2.15408,-0.44365 -20.42697,-0.6326 -74.43981,-0.7697 l -71.58505,-0.1817 0.3082,30.70828 0.30819,30.7083 -39.33014,0 -39.33024,0 -0.34456,-28.12945 z m 231.10641,-94.17687 c 5.73169,-0.89525 11.18994,-4.18224 13.81439,-8.31912 2.04349,-3.22106 2.851,-9.12462 2.85015,-20.83784 -5.6e-4,-11.15858 -0.67981,-16.54855 -2.58658,-20.53039 -1.3072,-2.72976 -6.81018,-8.22969 -9.35223,-9.34691 -3.87997,-1.7053 -9.21523,-1.82233 -83.79917,-1.8382 l -73.21914,-0.0156 -0.15955,25.06729 c -0.0874,13.78701 -0.009,27.72013 0.18341,30.96251 l 0.34287,5.89523 74.56299,-0.29982 c 41.00962,-0.1649 75.82292,-0.49662 77.36286,-0.73716 l 0,0 z"
         style="fill:#00529b;fill-opacity:1;fill-rule:nonzero;stroke:#ffffff;stroke-width:2;stroke-miterlimit:4;stroke-opacity:1;stroke-dasharray:none" />
      <path
         inkscape:connector-curvature="0"
         id="path4220"
         d="m -269.38414,540.70861 -58.95849,-0.12397 -0.34526,-69.40483 c -0.18988,-38.17266 -0.34533,-92.53492 -0.34544,-120.80504 l -2e-4,-51.40021 29.97639,0.21289 c 16.48702,0.11709 81.5667,0.31035 144.62152,0.42946 63.054855,0.11911 114.781504,0.34255 114.948192,0.49652 0.25351,0.23418 1.516641,40.67984 1.620939,51.90109 l 0.03195,3.46344 -88.631451,-0.22897 c -48.74732,-0.12594 -96.97176,-0.32902 -107.16543,-0.45129 l -18.53393,-0.22232 0.25648,16.40738 c 0.14105,9.02406 0.38308,17.75724 0.53784,19.40706 l 0.28136,2.99969 100.74273,-0.32233 100.74272,-0.32232 -0.318437,26.02874 c -0.175146,14.31581 -0.388345,26.06072 -0.473757,26.09983 -0.0855,0.0391 -45.22927,-0.0831 -100.319596,-0.2714 -55.09034,-0.18837 -100.28337,-0.23245 -100.42897,-0.098 -0.35459,0.32755 -1.07232,39.17879 -0.72962,39.49569 0.22639,0.20935 43.43785,0.40991 193.749435,0.89925 l 20.975609,0.0683 -0.346062,16.4227 c -0.190273,9.03248 -0.498093,21.65518 -0.68395,28.05044 l -0.337887,11.62775 -85.954215,-0.11781 c -47.27479,-0.0648 -112.48549,-0.17361 -144.91266,-0.24179 l 0,0 z"
         style="fill:#00529b;fill-opacity:1;fill-rule:nonzero;stroke:#ffffff;stroke-width:2;stroke-miterlimit:4;stroke-opacity:1;stroke-dasharray:none" />
      <path
         sodipodi:nodetypes="cssssscccsccccsssssccc"
         inkscape:connector-curvature="0"
         id="path4224"
         d="m 757.95054,541.11419 c -24.26005,-3.18218 -47.21497,-12.82689 -55.20794,-23.19602 -9.62622,-12.48812 -12.29408,-27.84153 -14.27085,-82.12809 -3.38348,-92.91893 6.80548,-120.87689 48.5792,-133.29871 6.90809,-2.05421 46.92322,-3.57056 114.43708,-4.33657 141.08546,-1.60075 160.52527,1.25109 178.74187,26.2217 12.5177,17.15881 13.9898,27.58963 14.0007,99.20763 l 0.011,67.8108 -6.2397,18.30891 c -17.1368,31.65812 -45.66437,34.74972 -186.09012,34.20455 -41.18176,-0.1598 -83.46467,-1.41724 -93.96201,-2.7942 z m 200.35284,-66.72964 7.66655,-8.94682 1.92697,-41.22761 c 3.2322,-69.15405 1.62827,-68.14184 -102.81661,-67.98665 -101.58702,0.15086 -101.25712,-0.0556 -101.25712,63.29202 0,43.46973 3.02567,52.02149 21.17772,59.85699 11.74065,5.06795 17.68637,5.38189 88.14942,4.65435 l 75.10064,-3.06875 10.05243,-6.57353 z"
         style="fill:#8cc63f;fill-opacity:1;fill-rule:nonzero;stroke:#ffffff;stroke-width:2;stroke-miterlimit:4;stroke-opacity:1;stroke-dasharray:none" />
      <g
         style="stroke:#ffffff;stroke-width:2.21462131;stroke-miterlimit:4;stroke-opacity:1;stroke-dasharray:none"
         transform="matrix(0.93962008,0,0,0.86797816,-450.53938,-20.384542)"
         id="g6061">
        <path
           inkscape:connector-curvature="0"
           style="fill:#00529b;fill-opacity:1;fill-rule:evenodd;stroke:#ffffff;stroke-width:2.21462131;stroke-miterlimit:4;stroke-opacity:1;stroke-dasharray:none"
           d="m 816.3125,549.625 c -3.61358,0 -6.5625,2.95748 -6.5625,6.625 0,3.66752 2.94892,6.65625 6.5625,6.65625 3.61358,0 6.53125,-2.98873 6.53125,-6.65625 0,-3.66752 -2.91767,-6.625 -6.53125,-6.625 z m -15.625,0.1875 c -3.61358,0 -6.53125,2.95748 -6.53125,6.625 0,3.66752 2.91767,6.65625 6.53125,6.65625 3.61358,0 6.53125,-2.98873 6.53125,-6.65625 0,-3.66752 -2.91767,-6.625 -6.53125,-6.625 z m 379.5,0 c -3.6136,0 -6.5625,2.95748 -6.5625,6.625 0,3.66752 2.9489,6.65625 6.5625,6.65625 3.6136,0 6.5313,-2.98873 6.5313,-6.65625 0,-3.66752 -2.9177,-6.625 -6.5313,-6.625 z M 1148.7188,550 c -3.6136,0 -6.5313,2.98873 -6.5313,6.65625 0,3.66752 2.9177,6.625 6.5313,6.625 3.6135,0 6.5624,-2.95748 6.5624,-6.625 0,-3.66752 -2.9489,-6.65625 -6.5624,-6.65625 z m 15.4374,0 c -3.6135,0 -6.5312,2.98873 -6.5312,6.65625 0,3.66752 2.9177,6.625 6.5312,6.625 3.6136,0 6.5626,-2.95748 6.5626,-6.625 0,-3.66752 -2.949,-6.65625 -6.5626,-6.65625 z m -275.0312,4.71875 -22.09375,0.125 0,57.71875 0,3.0625 1.375,2.34375 2.09375,2.625 1.78125,1.5 4.96875,2.21875 94.34375,-0.28125 2.0625,-0.40625 1.9375,-2.0625 2.46875,-2.09375 1.53125,-3.15625 1.25,-3.46875 0.125,-4.6875 -51.78125,0 -0.40625,-7.75 1.09375,-1.90625 2.90625,-2.375 2.1875,-0.6875 33.84375,0.5625 2.5,0.28125 1.78125,1.65625 1.375,2.0625 1.53125,-0.125 -0.5625,-19.625 -0.96875,-2.46875 -2.75,-2.78125 -4.28125,-0.96875 -49.84375,-0.125 -2.5,0 -3.59375,1.78125 -2.90625,1.65625 -1.78125,3.875 0.125,16.84375 1.40625,3.3125 1.21875,2.90625 2.625,2.5 1.25,1.375 L 893.28125,608 l -1.8125,-0.40625 -1.78125,-1.5 -0.6875,-2.625 0.125,-48.75 z m 436.7188,1.0625 c -0.3535,-0.003 -0.707,0.0155 -1.0626,0.0312 l -14.4374,0 c 3.6005,2.16693 3.5848,5.55881 3.7187,10.03125 -0.082,14.05287 -0.1681,28.10338 -0.25,42.15625 -7.1355,0 -14.427,-0.0937 -21.5625,-0.0937 -0.1995,-7.48034 0.069,-14.87791 -0.2188,-22.375 -0.8722,-6.94987 -8.092,-10.85855 -17.8437,-10.40625 -13.8598,-0.0404 -27.734,-0.0846 -41.5937,-0.125 0.2301,10.95647 0.02,22.10603 0.25,33.0625 -6.7212,0.046 -13.2476,-0.10851 -19.9688,-0.0625 -0.1348,-8.81899 0.1344,-17.85651 -0.062,-26.5 -1.7987,-5.3851 -6.3374,-7.16845 -11.125,-6.78125 -4.7893,0 -10.5857,-0.0312 -15.375,-0.0312 1.7994,1.5269 4.5819,1.96295 4.6875,8.53125 0.052,5.15347 0.1672,19.69028 0.2188,24.84375 -4.2354,-0.13811 -7.9835,-0.0494 -12.2188,-0.1875 -0.1937,-8.72747 -0.2707,-17.73951 -0.625,-26.375 -0.7132,-4.65782 -5.2718,-6.64833 -9.9062,-6.375 -4.8177,-0.0359 -10.9013,-0.21404 -15.7188,-0.25 2.3062,1.85297 4.0851,2.04559 3.8125,9.5625 0.1178,7.85598 0.2259,15.70652 0.3437,23.5625 l -12.8437,0 c -0.2995,-9.31803 0.034,-18.77092 -0.6563,-28 -1.2965,-2.65251 -0.19,-1.7899 -2.75,-3.3125 -1.9935,-1.18573 -8.5253,-1.78537 -11,-1.6875 -3.6132,0 -7.4492,-0.0312 -11.0624,-0.0312 2.4008,1.76361 2.2069,1.65785 3.1874,7.40625 0.1102,5.44802 -0.1101,20.23948 0,25.6875 -7.1816,-0.0921 -13.8808,-0.0955 -21.0624,-0.1875 L 1101,575 l -21.9688,0 c -0.122,17.16038 0.2397,34.4204 -0.1874,51.53125 -2.4301,6.4798 -7.2797,13.14676 -14.4688,13.9375 -4.1642,0.18467 0.9843,2.81169 4.3438,3.40625 6.8169,0.87414 14.0172,0.81778 19.75,-3.4375 4.2196,-1.88584 7.8295,-4.62953 9.7812,-8.9375 3.0727,-4.65144 2.5096,-10.43853 2.875,-15.75 2.6175,2.4088 4.687,6.05692 7.625,7.75 34.7471,0.47926 69.501,0.61683 104.25,0.25 0.3476,-5.34781 -1.5014,-11.0046 2.2812,-6.375 1.599,2.64455 2.2093,3.91222 4.3126,6.4375 23.0194,0.0884 49.3868,0.005 72.4062,0.0937 0.2222,-2.37806 -1.498,-10.88197 1.625,-6.78125 2.4905,2.23604 3.1415,3.71005 5.7188,6.34375 11.3724,0.1273 26.4088,0.34145 37.7812,0.46875 0.1381,-19.88738 -0.1069,-39.80012 0.031,-59.6875 -1.0486,-6.22952 -6.0105,-8.42826 -11.3124,-8.46875 z m 23.875,0.0312 0.6874,67.9375 20.8438,-0.125 -0.5312,-67.6875 -21,-0.125 z M 819.65625,571 l -1.375,1.25 -3.875,1.09375 -3.71875,1.53125 -33.28125,-0.15625 -4.28125,1.9375 -4.15625,2.625 -2.46875,4.96875 -1.53125,4.5625 -0.125,34.9375 88.78125,0.4375 0.15625,-49.03125 L 833.0625,575 833.1875,608.28125 786.78125,608 l 0.28125,-5.5 0.5625,-1.53125 1.78125,-1.9375 1.65625,-0.8125 22.25,-0.28125 2.75,-1.65625 2.09375,-2.21875 1.5,-3.1875 0.5625,-2.34375 L 819.65625,571 z m 185.21875,3.59375 -2.625,1.53125 -3.1875,1.90625 -2.46875,1.9375 -2.375,4.71875 0,39.34375 33.84375,0.15625 0.4063,0.8125 c 0,0 -0.4163,4.16128 -0.9688,4.4375 -0.5524,0.27621 -2.1875,3.03125 -2.1875,3.03125 l -3.4687,4.28125 -5.0938,2.46875 -4.9688,2.21875 5.375,2.5 12.8438,-0.15625 4.4062,-1.5 4.5626,-2.5 4.5624,-2.625 3.3126,-4 3.1874,-4.96875 -0.2812,-53.59375 -44.875,0 z m 24.2812,23.34375 -0.125,9.8125 -15.0624,0 0,-3.3125 1.4062,-2.90625 1.7812,-2.21875 2.3438,-1.09375 1.5312,0 8.125,-0.28125 z m 227.75,0 5.4063,0 c 0.9236,0.0998 1.1762,0.0349 2.7813,0.40625 1.0908,0.4171 2.2459,1.04942 3.0312,1.90625 2.3668,2.6389 2.2903,3.6455 2.5938,7.75 -4.6037,-0.046 -9.209,-0.079 -13.8126,-0.125 l 0,-9.9375 z"
           transform="translate(-637.28571,223.0765)"
           id="path5807" />
        <path
           inkscape:connector-curvature="0"
           style="fill:#00529b;fill-opacity:1;fill-rule:evenodd;stroke:#ffffff;stroke-width:2.21462131;stroke-miterlimit:4;stroke-opacity:1;stroke-dasharray:none"
           d="m 1455.1875,549.40625 c -3.6136,0 -6.5625,2.98873 -6.5625,6.65625 0,3.66752 2.9489,6.625 6.5625,6.625 3.6136,0 6.5313,-2.95748 6.5313,-6.625 0,-3.66752 -2.9177,-6.65625 -6.5313,-6.65625 z m 33,0.21875 c -3.6136,0 -6.5625,2.95748 -6.5625,6.625 0,3.66752 2.9489,6.65625 6.5625,6.65625 3.6136,0 6.5313,-2.98873 6.5313,-6.65625 0,-3.66752 -2.9177,-6.625 -6.5313,-6.625 z m -49.0313,0.5625 c -3.6135,0 -6.5312,2.98873 -6.5312,6.65625 0,3.66752 2.9177,6.625 6.5312,6.625 3.6136,0 6.5313,-2.95748 6.5313,-6.625 0,-3.66752 -2.9177,-6.65625 -6.5313,-6.65625 z m 92.75,5.46875 c -1.7523,9e-4 -3.4454,0.0264 -5.0624,0.0625 0,19.28892 0.4374,38.80483 0.4374,58.09375 0.4918,5.29209 1.7607,7.72532 9.875,9.8125 9.1774,0.61309 18.4404,0.10873 27.6563,0.28125 l 30.1875,0 0.4062,-9 c 2.3018,2.94628 4.6045,5.89747 6.9063,8.84375 l 126.7813,0 c -0.1971,-10.0719 -0.1065,-20.18354 -0.4063,-30.21875 -0.9389,-4.59681 -2.9945,-8.989 -6.2813,-12.03125 -2.3281,-2.33884 -5.0289,-3.44361 -8.2187,-4.6875 -5.7537,-1.99938 -11.9581,-2.15816 -18.0937,-2.1875 -14.4098,0.14666 -29.5804,-0.0662 -43.9688,0.25 -5.5261,0.91545 -8.1547,2.54445 -10.5625,6.9375 -0.9871,1.01286 -3.659,6.83316 -3.7813,3.375 -0.3811,-3.36235 0.7824,-7.01706 -1.375,-10.09375 -2.2735,-1.73889 -5.1586,-2.24122 -8.25,-2.28125 l -16.7187,0.125 c 2.1088,2.05354 3.9706,4.88999 3.4687,7.96875 0.042,9.08089 0.084,18.16911 0.125,27.25 l -19.75,0 c -0.092,-11.00251 -0.1891,-21.99749 -0.2812,-33 -7.0435,-0.0921 -14.0815,-0.18918 -21.125,-0.28125 0.1842,11.00251 0.3471,21.99749 0.5312,33 -7.3949,-0.064 -14.8775,0.30951 -22.2187,-0.0312 -2.9738,-1.1183 -3.2232,-1.88508 -3.1563,-6.03125 0.1611,-15.33303 -0.3423,-30.66278 -0.4374,-46 -5.6547,-0.0392 -11.4306,-0.15896 -16.6876,-0.15625 z m -69.7187,19 c -2.5736,0.006 -5.1547,0.0385 -7.875,0.15625 -3.8332,0.15275 -7.4433,0.39546 -11.0937,0.9375 -4.7983,0.63674 -8.6468,2.26927 -12.5313,4.40625 -2.5147,0.82301 -5.1305,3.50558 -7.1563,5.125 -2.0452,2.16336 -3.3427,3.8794 -4.6562,6.59375 -1.6682,2.23685 -1.9593,4.82298 -2.6875,7.4375 -0.1491,2.99019 -0.5818,5.83636 0.3125,8.75 0.4636,3.93498 3.389,6.7566 5.4688,10 2.5698,1.77783 4.4786,4.2072 7.5937,5.46875 3.5671,1.88101 5.5867,2.4821 8.8125,2.84375 2.166,-0.0867 4.4974,0.35997 6.5,0 -1.7051,-1.13999 -3.4025,-2.2615 -5.125,-3.375 -1.9264,-1.42603 -3.9047,-3.02617 -5.25,-5.03125 -1.6865,-1.97451 -2.4091,-4.50337 -2.5312,-7.0625 -0.2213,-2.65059 0.5075,-5.23515 1.75,-7.53125 0.8296,-2.61737 3.7094,-4.48521 7.5,-5.71875 2.1058,-0.2564 4.3954,0.0418 6.5624,0 0.1842,8.70073 0.3472,17.39302 0.5313,26.09375 l 65.75,0.4375 c -0.046,-16.34264 -0.079,-32.68861 -0.125,-49.03125 -7.0665,-0.046 -14.1523,-0.11025 -21.2187,-0.15625 l 0.3437,32.875 -23.0625,0.40625 c 0,-11.04854 -0.062,-22.51396 -0.062,-33.5625 -2.6167,-0.0549 -5.1764,-0.068 -7.75,-0.0625 z m 335.6875,0.21875 c -14.271,0.046 -28.5415,0.079 -42.8125,0.125 -2.6152,0.2604 -5.2769,0.97378 -7.25,2.8125 -2.7893,2.14723 -4.9066,5.34349 -5.7813,8.75 -0.2273,12.34922 -0.1207,24.70589 -0.2187,37.0625 l 35.125,0 c 0.2365,5.14072 -1.8131,9.29557 -7.0937,13.21875 -4.7845,2.75601 -5.5208,3.2491 -9.0938,4.15625 2.9551,2.45509 10.7746,2.8288 13.4688,2.96875 11.0063,-1.46006 13.2847,-3.32231 17.9374,-7.59375 2.8732,-3.13894 4.8517,-5.50895 5.4376,-8.1875 0.092,-17.76974 0.1892,-35.54276 0.2812,-53.3125 z m -152.0625,22.90625 54,0 c 1.9273,0.3244 2.936,0.84423 4.0625,1.84375 1.098,0.72895 1.7367,1.72875 2.375,2.75 0.1761,1.83601 0.012,3.75209 0.062,5.625 l -67.25,-0.53125 c -0.1941,-1.88663 -0.1253,-2.50354 -0.031,-4.40625 0.3052,-1.44578 1.5737,-2.98391 2.5626,-3.84375 1.2919,-0.67818 2.5403,-1.31768 4.2187,-1.4375 z m 121.7813,0.0937 c 2.9337,0.0917 6.2226,0.0958 9.1562,0.1875 0.046,3.3606 0.079,6.73315 0.125,10.09375 -4.6956,-0.23018 -9.5856,0.16773 -14.2812,-0.0625 l 0.1874,-0.625 c -0.076,-1.05734 -0.201,-2.13376 -0.031,-3.1875 0.4119,-2.34851 0.3248,-2.32146 1.5312,-4.09375 0.6009,-0.26456 0.9797,-1.93842 3.3126,-2.3125 z M 1568.25,631.0625 c -3.6136,0 -6.5312,2.95748 -6.5312,6.625 0,3.66752 2.9176,6.65625 6.5312,6.65625 3.6136,0 6.5625,-2.98873 6.5625,-6.65625 0,-3.66752 -2.9489,-6.625 -6.5625,-6.625 z m 15.8438,0.1875 c -3.6136,0 -6.5626,2.95748 -6.5626,6.625 0,3.66752 2.949,6.65625 6.5626,6.65625 3.6135,0 6.5312,-2.98873 6.5312,-6.65625 0,-3.66752 -2.9177,-6.625 -6.5312,-6.625 z"
           transform="translate(-637.28571,223.0765)"
           id="path5817" />
        <path
           inkscape:connector-curvature="0"
           style="fill:#00529b;fill-opacity:1;fill-rule:evenodd;stroke:#ffffff;stroke-width:2.21462131;stroke-miterlimit:4;stroke-opacity:1;stroke-dasharray:none"
           d="m 2102.625,549.40625 c -3.6136,0 -6.5312,2.98873 -6.5312,6.65625 0,3.66752 2.9176,6.625 6.5312,6.625 3.6136,0 6.5625,-2.95748 6.5625,-6.625 0,-3.66752 -2.9489,-6.65625 -6.5625,-6.65625 z m 70.7188,0.1875 c -3.6136,0 -6.5626,2.98873 -6.5626,6.65625 0,3.66752 2.949,6.625 6.5626,6.625 3.6135,0 6.5312,-2.95748 6.5312,-6.625 0,-3.66752 -2.9177,-6.65625 -6.5312,-6.65625 z m -163.6876,0.21875 c -3.6135,0 -6.5312,2.95748 -6.5312,6.625 0,3.66752 2.9177,6.65625 6.5312,6.65625 3.6136,0 6.5626,-2.98873 6.5626,-6.65625 0,-3.66752 -2.949,-6.625 -6.5626,-6.625 z m 77.3438,0 c -3.6136,0 -6.5312,2.95748 -6.5312,6.625 0,3.66752 2.9176,6.65625 6.5312,6.65625 3.6136,0 6.5625,-2.98873 6.5625,-6.65625 0,-3.66752 -2.9489,-6.625 -6.5625,-6.625 z m 102.3438,0 c -3.6136,0 -6.5313,2.95748 -6.5313,6.625 0,3.66752 2.9177,6.65625 6.5313,6.65625 3.6135,0 6.5624,-2.98873 6.5624,-6.65625 0,-3.66752 -2.9489,-6.625 -6.5624,-6.625 z M 2118.25,550 c -3.6136,0 -6.5312,2.95748 -6.5312,6.625 0,3.66752 2.9176,6.65625 6.5312,6.65625 3.6136,0 6.5625,-2.98873 6.5625,-6.65625 0,-3.66752 -2.9489,-6.625 -6.5625,-6.625 z m 111.5,5.78125 c -2.4009,0.26898 4.0993,3.40709 3.5312,14.34375 -0.081,12.67609 -0.1374,25.35516 -0.2187,38.03125 -9.8672,-0.19685 -12.7067,-0.20741 -21.6563,-0.25 -0.098,-8.80803 0.1216,-16.32101 -0.3124,-32.40625 -6.6142,0.0499 -8.6776,-0.28572 -21.0938,-0.0312 0.1698,9.92892 -0.076,22.07107 0.094,32 -13.0281,0.0921 -26.0657,0.18918 -39.0938,0.28125 -0.7102,-9.63316 0.7164,-25.65421 -0.094,-26.75 -4.7826,-7.9441 -10.8555,-5.94822 -18.9687,-6.15625 -8.5417,-0.49599 -7.2767,0.15418 -2.625,6.28125 0.347,9.15157 -0.1201,17.94218 -0.1875,27.09375 -5.0327,-0.38844 -6.8399,-0.30942 -12.5312,-0.46875 -0.2527,-8.3922 0.545,-17.54373 0,-25.6875 0.7514,-9.94417 -11.5371,-6.75125 -17.4376,-7.3125 -11.6199,-0.45566 -8.2833,-0.83167 -4.375,4 0.5815,8.67972 -0.01,19.99188 0.4376,29 -4.8985,0.17134 -5.6141,0.0989 -13.3126,0 0,-8.54773 0.125,-19.07726 0.125,-27.625 -0.534,-6.25741 -7.4884,-4.72288 -20.75,-5 -3.4886,-0.0473 -4.8195,-0.28256 -5.0312,-0.25 0.1962,0.25451 4.3394,1.94341 3.2812,9.03125 L 2060,608 l -64.0938,0.5625 c 0.01,-9.89723 -1.4445,-10.12931 7.4376,-12.46875 11.2203,-1.12969 23.0362,-0.58613 33.9374,-0.21875 4.1939,6.48576 5.3833,5.64262 5.7188,-2.75 0.3557,-5.81055 0.028,-13.39877 -0.5312,-14.5625 -1.7711,-2.67974 -1.1749,-3.26453 -6.4063,-4.09375 -4.1056,-0.65076 -16.2196,-0.26379 -22.0625,-0.3125 -11.7781,0.26326 -21.7796,-0.25446 -31.9688,0.28125 -8.3683,3.44499 -6.4135,3.05342 -8.3437,9.90625 -0.8573,16.50258 0.2642,18.33412 6.625,23.8125 -9.8056,-0.046 -19.6006,-0.11024 -29.4063,-0.15625 l 0,-32.4375 -21.6874,-0.40625 0.8124,33.125 -26.9062,0 c -0.2331,-15.16509 0.2525,-30.44373 -0.4375,-45.53125 -0.7441,-7.87838 -5.5123,-6.56012 -16.875,-6.71875 -14.9686,-0.26278 -6.7236,-0.71761 -5.625,4.46875 -0.3154,17.38686 1.269,38.01003 0.1563,55.28125 -5.3997,8.11246 -11.3039,8.81396 -18.5,8.59375 -11.9199,-0.7873 -15.8287,-9.42718 -15.8438,-18.25 -0.5751,-4.16707 -0.6178,-6.48194 -0.75,-10.125 -4.3384,6.57061 -1.9553,20.02368 -0.094,25.4375 3.9278,13.50762 16.6262,19.84176 31.3438,19.4375 14.0759,-1.03131 19.6264,-5.34415 25.1875,-13.71875 1.952,-5.01184 -0.7548,-14.24343 3.1563,-9.84375 3.3152,4.33175 2.4141,2.49254 5.6562,6.4375 11.188,0.0751 28.9994,-0.0751 40.1875,0 -0.3088,-7.13845 -1.2648,-13.35851 3.3437,-5.40625 3.8372,4.87263 0.5786,0.96451 4.4063,5.5625 60.1911,0.0266 132.3714,-0.0838 192.5625,0 -0.8148,-5.75887 -0.4798,-11.5373 4,-4.03125 2.611,6.59992 10.1659,3.46823 15.5625,4.15625 13.5118,-0.007 27.0227,0.0871 40.5313,-0.28125 0.07,-5.52302 -0.6797,-13.11811 2.0937,-8.125 1.7779,3.25332 2.6854,4.39614 5.9375,8.3125 8.7385,0.102 26.8553,-0.008 35.5938,0.0937 0,-21.31448 0.094,-41.99802 0.094,-63.3125 -3.0634,-6.87877 -10.0332,-3.39596 -21.7813,-4.71875 -1.698,-0.18113 -2.7271,-0.28082 -3.2812,-0.21875 z m -289.625,75.0625 c -3.6136,0 -6.5312,2.98873 -6.5312,6.65625 0,3.66752 2.9176,6.625 6.5312,6.625 3.6136,0 6.5625,-2.95748 6.5625,-6.625 0,-3.66752 -2.9489,-6.65625 -6.5625,-6.65625 z m -15.8125,0.21875 c -3.6136,0 -6.5313,2.95748 -6.5313,6.625 0,3.66752 2.9177,6.65625 6.5313,6.65625 3.6136,0 6.5313,-2.98873 6.5313,-6.65625 0,-3.66752 -2.9177,-6.625 -6.5313,-6.625 z"
           transform="translate(-637.28571,223.0765)"
           id="path5827"
           sodipodi:nodetypes="ssssssssssssssssssssssssssssssccccccccccccccccccccccccccccscccccccccccccccccccccccccccccccccccssssssssss" />
        <path
           inkscape:connector-curvature="0"
           style="fill:#00529b;fill-opacity:1;fill-rule:evenodd;stroke:#ffffff;stroke-width:2.21462131;stroke-miterlimit:4;stroke-opacity:1;stroke-dasharray:none"
           d="m 2322.75,549.8125 c -3.6136,0 -6.5312,2.95748 -6.5312,6.625 0,3.66752 2.9176,6.65625 6.5312,6.65625 3.6136,0 6.5625,-2.98873 6.5625,-6.65625 0,-3.66752 -2.9489,-6.625 -6.5625,-6.625 z m 15.8125,0 c -3.6136,0 -6.5313,2.95748 -6.5313,6.625 0,3.66752 2.9177,6.65625 6.5313,6.65625 3.6136,0 6.5625,-2.98873 6.5625,-6.65625 0,-3.66752 -2.9489,-6.625 -6.5625,-6.625 z m 382.5625,5.875 0.125,67.78125 21.6875,0.28125 0,-68.0625 z m -24.6875,0.59375 c -3.9268,5.7e-4 -8.5974,-0.0715 -14.875,0.21875 2.9102,2.25624 4.1763,-1.72498 4,7.59375 -0.2931,8.60043 0.038,36.15096 -0.625,44.15625 -7.7117,-0.36912 -11.7642,-0.042 -22.5,-0.5625 0.2944,-22.49537 4.4828,-31.40428 -17.5625,-32.78125 -14.2157,-0.41182 -27.3275,0.12681 -41,0.25 0.3086,12.36285 0.5437,25.02306 0.3438,33.21875 -10.5057,-0.0584 -12.9741,-0.38078 -21.0626,-0.0312 -0.1668,-24.29108 -0.3516,-27.71183 -20,-32.40625 -2.4676,-1.12476 -35.2573,-0.43197 -53.625,-0.25 -15.2184,0.0492 -14.692,12.47038 -16.125,9 0.2652,-15.08932 -20.0717,-11.18875 -23.7812,-11.65625 -10.2743,0.34694 -0.1613,1.58239 -0.2812,7.90625 0.057,8.19074 0.018,17.67122 -0.031,27 -7.2874,-0.37412 -11.464,0.0522 -20.2187,-0.15625 -0.3448,-9.91828 0.1444,-22.79759 -0.25,-32.5 -4.1172,0.026 -17.6332,-0.0265 -21.75,0 -0.4469,17.94092 1.2958,36.0838 -0.5938,53.90625 -3.6147,7.69681 -12.0176,11.55845 -16.3438,12.53125 11.9835,3.70637 29.2012,2.04904 36.2188,-10.0625 5.3326,-7.72313 0.3321,-25.46851 5.5,-13.65625 3.2214,4.78954 3.0303,5.74074 4.5,5.875 42.8188,0.45643 88.8823,-0.43252 126.3125,-0.375 -0.2309,-12.80994 0.605,-9.04732 7.5625,0.125 21.8524,0.52126 50.2059,0.0743 72.5,0.28125 -1.6126,-16.88597 2.9457,-5.14465 7.5625,-0.0937 10.9292,-0.0971 30.0689,-0.20953 37.6875,-0.28125 0,-19.86111 0.2812,-40.95139 0.2812,-60.8125 -0.1989,-5.01006 -5.299,-6.43844 -11.8437,-6.4375 z m -298.625,18.875 c -6.5831,0.0921 -13.9169,0.0954 -20.5,0.1875 -0.2302,10.95647 0.011,21.44978 -0.2187,32.40625 -8.0102,-0.046 -16.0211,-0.11024 -24.0313,-0.15625 0,-10.63422 -0.01,-21.30609 -0.01,-31.94031 -7.282,-0.21846 -13.313,0.12485 -20.5842,0.0653 -6.1958,0.30863 -10.4164,0.92224 -16.3126,3.5 -4.8534,2.8438 -5.2447,3.25695 -8.4687,5.84375 -2.5542,2.41326 -2.2919,1.72145 -4.875,5.96875 -1.6126,3.72107 -1.6649,3.67448 -2.8125,8.3125 -0.5108,2.42421 -0.6822,3.68548 -0.1562,7.90625 1.1905,2.68861 2.0671,5.03779 4.0312,7.8125 1.6402,2.01083 2.8232,3.89546 5.2812,5.65625 2.5538,1.78174 2.7404,1.94708 6.9376,3.625 4.7805,1.64102 7.8281,2.47115 12.8124,3.40625 -5.8384,-3.40771 -9.5448,-6.47729 -12.25,-11.5 -2.1508,-4.09225 -1.3556,-10.94599 -0.062,-12.65625 1.1591,-2.1065 2.8247,-4.21762 6.9687,-5.9375 2.3918,-0.8736 4.2149,-1.19816 6.5,-1.28125 1.852,0.20706 2.0103,0.28791 2,2.21875 -0.085,8.52829 -0.1959,17.06546 -0.2813,25.59375 22.0971,-0.0921 44.2154,-0.18918 66.3126,-0.28125 -0.1843,-16.43471 -0.097,-32.31529 -0.2813,-48.75 z M 2502.375,597.625 c 17.8259,1.0424 35.8314,0.0865 53.7188,0.59375 4.2221,1.48089 4.4192,1.20305 5.0937,5.78125 l 0,4 c 0,0 -67.5282,-0.125 -68.2187,-0.125 l 0,-3.97534 0,-3.21216 c 0.2859,-1.98576 2.1886,-2.9658 6.9062,-3.03125 1.3106,-0.0533 1.4205,-0.0331 2.5,-0.0312 z m 128.125,0.0937 c 0.8251,-0.0144 2.1476,-0.0514 3.1166,0.10797 2.6136,0.49623 3.5388,1.14669 4.2709,1.45453 1.6066,1.05172 2.0165,1.3009 2.8937,2.875 0.8837,2.1284 0.8079,4.07082 1.0313,6.1875 -4.7522,0.071 -8.7473,-0.0792 -13.5,-0.0625 -0.092,-3.49871 -0.1892,-7.00129 -0.2813,-10.5 0.8242,-0.0373 1.6437,-0.0481 2.4688,-0.0625 z m -243.2812,32.75 c -3.6136,0 -6.5626,2.95748 -6.5626,6.625 0,3.66752 2.949,6.65625 6.5626,6.65625 3.6135,0 6.5312,-2.98873 6.5312,-6.65625 0,-3.66752 -2.9177,-6.625 -6.5312,-6.625 z m -15.8438,0.375 c -3.6136,0 -6.5312,2.98873 -6.5312,6.65625 0,3.66752 2.9176,6.625 6.5312,6.625 3.6136,0 6.5625,-2.95748 6.5625,-6.625 0,-3.66752 -2.9489,-6.65625 -6.5625,-6.65625 z"
           transform="translate(-637.28571,223.0765)"
           id="path5843"
           sodipodi:nodetypes="ssssssssssccccccccccccccccccccccccccccccccccccccccccccccccccccccccccccccccccccccsccccccsssssssssss" />
      </g>
    </g>
  </g>
</svg>
